<svg viewBox="0 0 468 115" fill="none" xmlns="http://www.w3.org/2000/svg">
<path d="M99.84 93V22.44H110.208C114.144 22.44 117.424 23.304 120.048 25.032C122.704 26.76 124.688 29.208 126 32.376C127.312 35.544 127.968 39.272 127.968 43.56C127.968 47.848 127.28 51.544 125.904 54.648C124.528 57.752 122.512 60.184 119.856 61.944C117.232 63.672 114.016 64.616 110.208 64.776V93H99.84ZM110.208 54.216C112.032 54.216 113.472 53.864 114.528 53.16C115.584 52.424 116.336 51.272 116.784 49.704C117.264 48.136 117.504 46.12 117.504 43.656C117.504 41.16 117.264 39.128 116.784 37.56C116.336 35.992 115.568 34.84 114.48 34.104C113.424 33.368 112 33 110.208 33V54.216ZM132.15 93V40.488H141.846V46.344C142.038 45.064 142.63 43.928 143.622 42.936C144.614 41.944 145.814 41.16 147.222 40.584C148.662 40.008 150.102 39.72 151.542 39.72V50.472C151.126 50.312 150.678 50.216 150.198 50.184C149.75 50.12 149.302 50.088 148.854 50.088C146.742 50.088 145.046 50.664 143.766 51.816C142.486 52.968 141.846 54.536 141.846 56.52V93H132.15ZM166.508 93.672C162.636 93.672 159.596 92.376 157.388 89.784C155.18 87.16 154.076 83.848 154.076 79.848V53.544C154.076 49.544 155.18 46.248 157.388 43.656C159.596 41.032 162.636 39.72 166.508 39.72C170.348 39.72 173.372 41.032 175.58 43.656C177.82 46.248 178.94 49.544 178.94 53.544V79.848C178.94 83.848 177.82 87.16 175.58 89.784C173.372 92.376 170.348 93.672 166.508 93.672ZM166.508 85.224C167.756 85.224 168.62 84.728 169.1 83.736C169.58 82.712 169.82 81.416 169.82 79.848V53.544C169.82 51.944 169.58 50.648 169.1 49.656C168.62 48.664 167.756 48.168 166.508 48.168C165.26 48.168 164.396 48.664 163.916 49.656C163.436 50.648 163.196 51.944 163.196 53.544V79.848C163.196 81.448 163.436 82.744 163.916 83.736C164.396 84.728 165.26 85.224 166.508 85.224ZM182.956 111.048C182.06 111.048 181.244 110.984 180.508 110.856C179.772 110.76 179.18 110.6 178.732 110.376V101.448C178.924 101.576 179.292 101.688 179.836 101.784C180.38 101.88 180.908 101.928 181.42 101.928C182.412 101.928 183.116 101.56 183.532 100.824C183.948 100.088 184.188 99.128 184.252 97.944C184.348 96.76 184.396 95.528 184.396 94.248V40.488H194.092V94.344C194.092 97.64 193.788 100.536 193.18 103.032C192.604 105.56 191.516 107.528 189.916 108.936C188.316 110.344 185.996 111.048 182.956 111.048ZM184.396 32.136V22.44H194.092V32.136H184.396ZM211.369 93.768C207.497 93.768 204.441 92.44 202.201 89.784C199.993 87.096 198.889 83.816 198.889 79.944V53.544C198.889 49.448 199.993 46.12 202.201 43.56C204.409 41 207.497 39.72 211.465 39.72C214.057 39.72 216.281 40.312 218.137 41.496C220.025 42.68 221.465 44.296 222.457 46.344C223.449 48.36 223.945 50.664 223.945 53.256V68.52H207.913V79.944C207.913 81.256 208.201 82.472 208.777 83.592C209.385 84.68 210.281 85.224 211.465 85.224C212.713 85.224 213.593 84.712 214.105 83.688C214.649 82.664 214.921 81.416 214.921 79.944V74.184H223.945V80.232C223.945 84.296 222.841 87.576 220.633 90.072C218.457 92.536 215.369 93.768 211.369 93.768ZM207.913 60.936H214.921V53.544C214.921 52.104 214.665 50.856 214.153 49.8C213.673 48.712 212.777 48.168 211.465 48.168C210.249 48.168 209.353 48.728 208.777 49.848C208.201 50.936 207.913 52.168 207.913 53.544V60.936ZM240.148 93.72C235.892 93.72 232.756 92.392 230.74 89.736C228.756 87.08 227.764 83.384 227.764 78.648V54.792C227.764 50.024 228.756 46.328 230.74 43.704C232.756 41.048 235.892 39.72 240.148 39.72C244.404 39.72 247.54 41.048 249.556 43.704C251.604 46.36 252.628 50.056 252.628 54.792V58.92H242.932V53.544C242.932 52.072 242.74 50.84 242.356 49.848C241.972 48.856 241.236 48.36 240.148 48.36C239.06 48.36 238.34 48.872 237.988 49.896C237.636 50.888 237.46 52.104 237.46 53.544V79.896C237.46 81.336 237.636 82.568 237.988 83.592C238.34 84.584 239.06 85.08 240.148 85.08C241.236 85.08 241.972 84.584 242.356 83.592C242.74 82.6 242.932 81.368 242.932 79.896V74.52H252.628V78.648C252.628 83.384 251.604 87.08 249.556 89.736C247.54 92.392 244.404 93.72 240.148 93.72ZM271.043 93.768C268.003 93.768 265.683 93.096 264.083 91.752C262.483 90.408 261.379 88.488 260.771 85.992C260.195 83.496 259.907 80.52 259.907 77.064V49.224H255.011V40.488H259.907V27.528H269.603V40.488H276.275V49.224H269.603V78.456C269.603 80.504 269.907 82.024 270.515 83.016C271.123 83.976 272.115 84.456 273.491 84.456C274.099 84.456 274.627 84.408 275.075 84.312C275.555 84.216 275.939 84.104 276.227 83.976V92.856C275.587 93.112 274.883 93.32 274.115 93.48C273.379 93.672 272.355 93.768 271.043 93.768ZM287.502 93V33.096H277.71V22.44H307.662V33.096H297.87V93H287.502ZM308.494 93V40.488H318.19V46.344C318.382 45.064 318.974 43.928 319.966 42.936C320.958 41.944 322.158 41.16 323.566 40.584C325.006 40.008 326.446 39.72 327.886 39.72V50.472C327.47 50.312 327.022 50.216 326.542 50.184C326.094 50.12 325.646 50.088 325.198 50.088C323.086 50.088 321.39 50.664 320.11 51.816C318.83 52.968 318.19 54.536 318.19 56.52V93H308.494ZM338.061 93.768C335.821 93.768 333.885 92.632 332.253 90.36C330.621 88.088 329.805 84.616 329.805 79.944C329.805 75.432 330.765 71.8 332.685 69.048C334.637 66.296 337.549 63.912 341.421 61.896C342.637 61.256 343.661 60.68 344.493 60.168C345.325 59.656 345.837 59.176 346.029 58.728V52.968C346.029 51.656 345.869 50.536 345.549 49.608C345.261 48.648 344.525 48.168 343.341 48.168C342.253 48.168 341.517 48.68 341.133 49.704C340.749 50.696 340.557 51.944 340.557 53.448V55.944H330.861V53.736C330.861 50.856 331.421 48.376 332.541 46.296C333.693 44.184 335.245 42.568 337.197 41.448C339.181 40.296 341.421 39.72 343.917 39.72C346.317 39.72 348.397 40.28 350.157 41.4C351.917 42.488 353.277 44.008 354.237 45.96C355.229 47.88 355.725 50.088 355.725 52.584V83.88C355.725 86.216 355.789 88.04 355.917 89.352C356.045 90.632 356.205 91.848 356.397 93H346.893C346.477 92.488 346.221 91.736 346.125 90.744C346.061 89.752 346.029 89.096 346.029 88.776H345.357C344.557 90.248 343.533 91.448 342.285 92.376C341.069 93.304 339.661 93.768 338.061 93.768ZM341.997 84.264C343.117 84.264 344.061 83.88 344.829 83.112C345.629 82.344 346.029 81.512 346.029 80.616V68.136C343.693 69.128 341.981 70.632 340.893 72.648C339.837 74.632 339.309 76.872 339.309 79.368C339.309 80.456 339.517 81.544 339.933 82.632C340.349 83.72 341.037 84.264 341.997 84.264ZM373.085 93.72C368.829 93.72 365.693 92.392 363.677 89.736C361.693 87.08 360.701 83.384 360.701 78.648V54.792C360.701 50.024 361.693 46.328 363.677 43.704C365.693 41.048 368.829 39.72 373.085 39.72C377.341 39.72 380.477 41.048 382.493 43.704C384.541 46.36 385.565 50.056 385.565 54.792V58.92H375.869V53.544C375.869 52.072 375.677 50.84 375.293 49.848C374.909 48.856 374.173 48.36 373.085 48.36C371.997 48.36 371.277 48.872 370.925 49.896C370.573 50.888 370.397 52.104 370.397 53.544V79.896C370.397 81.336 370.573 82.568 370.925 83.592C371.277 84.584 371.997 85.08 373.085 85.08C374.173 85.08 374.909 84.584 375.293 83.592C375.677 82.6 375.869 81.368 375.869 79.896V74.52H385.565V78.648C385.565 83.384 384.541 87.08 382.493 89.736C380.477 92.392 377.341 93.72 373.085 93.72ZM389.869 93V22.44H399.565V54.216V55.944H400.045L400.621 54.216L405.325 40.488H414.541L407.053 57.576L415.885 93H406.093L401.293 71.784L401.197 71.016H401.101L399.565 74.856V93H389.869ZM430.556 93.768C426.684 93.768 423.628 92.44 421.388 89.784C419.18 87.096 418.076 83.816 418.076 79.944V53.544C418.076 49.448 419.18 46.12 421.388 43.56C423.596 41 426.684 39.72 430.652 39.72C433.244 39.72 435.468 40.312 437.324 41.496C439.212 42.68 440.652 44.296 441.644 46.344C442.636 48.36 443.132 50.664 443.132 53.256V68.52H427.1V79.944C427.1 81.256 427.388 82.472 427.964 83.592C428.572 84.68 429.468 85.224 430.652 85.224C431.9 85.224 432.78 84.712 433.292 83.688C433.836 82.664 434.108 81.416 434.108 79.944V74.184H443.132V80.232C443.132 84.296 442.028 87.576 439.82 90.072C437.644 92.536 434.556 93.768 430.556 93.768ZM427.1 60.936H434.108V53.544C434.108 52.104 433.852 50.856 433.34 49.8C432.86 48.712 431.964 48.168 430.652 48.168C429.436 48.168 428.54 48.728 427.964 49.848C427.388 50.936 427.1 52.168 427.1 53.544V60.936ZM447.244 93V40.488H456.94V46.344C457.132 45.064 457.724 43.928 458.716 42.936C459.708 41.944 460.908 41.16 462.316 40.584C463.756 40.008 465.196 39.72 466.636 39.72V50.472C466.22 50.312 465.772 50.216 465.292 50.184C464.844 50.12 464.396 50.088 463.948 50.088C461.836 50.088 460.14 50.664 458.86 51.816C457.58 52.968 456.94 54.536 456.94 56.52V93H447.244Z" fill="#8C14E9"/>
<path fill-rule="evenodd" clip-rule="evenodd" d="M40 19C62.0914 19 80 36.9086 80 59C80 81.0914 62.0914 99 40 99C17.9086 99 0 81.0914 0 59C0 58.3293 0.01651 57.6626 0.0491333 57H40V19Z" fill="#8C14E9"/>
</svg>
